<?xml version="1.0" encoding="UTF-8"?>
<svg version="1.1" xmlns="http://www.w3.org/2000/svg" width="817" height="761">
<path d="M0 0 C9.65380968 6.66699564 16.90674509 14.54646846 23.54663086 24.11083984 C26.29635248 28.06816231 29.20561708 31.7214066 32.43359375 35.3046875 C49.95679602 54.79273396 66.140625 87.56834869 66.140625 114.203125 C67.1615625 113.83960938 68.1825 113.47609375 69.234375 113.1015625 C103.60218615 101.11007549 148.57657737 88.718207 183.578125 104.83984375 C195.35757105 111.1066527 204.18676078 121.2268692 211.17578125 132.375 C213.13247276 135.19139096 215.17450816 137.27550595 217.703125 139.578125 C225.81001313 147.32034343 230.24790861 158.1102973 231.140625 169.203125 C231.24503906 170.45416016 231.24503906 170.45416016 231.3515625 171.73046875 C232.78382652 208.36337544 209.38258254 243.67312186 189.140625 272.203125 C189.79434082 272.63020752 190.44805664 273.05729004 191.12158203 273.49731445 C215.22599434 289.28788735 238.79603674 305.66388378 254.984375 330.11328125 C257.19023209 333.27421053 259.59344482 335.93033563 262.265625 338.703125 C267.80780468 344.62872591 271.53120304 350.99259773 275.140625 358.203125 C275.59695313 359.08355469 276.05328125 359.96398437 276.5234375 360.87109375 C280.98543548 370.9339913 281.08019316 384.46024778 277.140625 394.703125 C265.20075358 418.7170237 240.95970435 430.88042831 216.61547852 439.32568359 C195.76729881 446.20637051 173.8838088 450.34100115 152.140625 453.203125 C153.9211593 459.95996011 155.87700248 466.6371124 157.99536133 473.29541016 C168.293446 505.79881692 179.95222443 547.80102622 164.578125 580.5625 C158.61471314 591.5170283 150.887998 599.56423997 139.140625 604.203125 C112.16565923 611.97328048 84.71132826 600.73570638 61.140625 588.203125 C60.41584961 587.82140137 59.69107422 587.43967773 58.94433594 587.04638672 C41.84122799 577.98983433 26.50729082 566.91203393 11.140625 555.203125 C9.10861157 557.79044208 7.48998815 560.29492964 6.08203125 563.265625 C5.51282959 564.44547974 5.51282959 564.44547974 4.93212891 565.64916992 C4.32377197 566.91337769 4.32377197 566.91337769 3.703125 568.203125 C-11.68073932 599.47641323 -34.43394948 638.92546429 -68.984375 651.703125 C-70.59974915 652.2333998 -72.22418986 652.73751296 -73.859375 653.203125 C-74.47554688 653.39261719 -75.09171875 653.58210937 -75.7265625 653.77734375 C-86.34555982 655.89725347 -97.86610362 654.54459053 -107.10058594 648.81176758 C-113.54007557 644.48895045 -119.04368675 639.52394765 -124.484375 634.015625 C-125.73420166 632.75878906 -125.73420166 632.75878906 -127.00927734 631.4765625 C-132.11792695 626.24395079 -136.41367063 621.14953871 -140.18359375 614.875 C-141.99852272 611.9812671 -144.05852187 609.53085365 -146.296875 606.953125 C-161.50559306 588.6347206 -168.27814711 565.27487734 -174.11669922 542.63476562 C-174.82272278 540.32313029 -175.70956291 538.32376609 -176.859375 536.203125 C-177.43042969 536.36393555 -178.00148438 536.52474609 -178.58984375 536.69042969 C-207.71044008 544.80391857 -243.30016059 553.22520495 -272.859375 542.203125 C-274.49326172 541.59597656 -274.49326172 541.59597656 -276.16015625 540.9765625 C-289.97306854 534.66883454 -301.46021215 521.55960455 -309.23046875 508.765625 C-310.81577265 506.27171767 -312.51673972 504.27851693 -314.546875 502.140625 C-323.2760168 492.53458311 -325.37284293 480.027562 -325.171875 467.4921875 C-324.38518011 453.49557425 -320.41511041 439.99394312 -314.859375 427.203125 C-314.41851562 426.1812207 -314.41851562 426.1812207 -313.96875 425.13867188 C-306.90189626 408.98372444 -298.03308243 392.91468347 -287.13671875 379.00390625 C-285.6665226 377.29921255 -285.6665226 377.29921255 -285.859375 375.203125 C-286.70757812 374.74164063 -287.55578125 374.28015625 -288.4296875 373.8046875 C-306.38113668 363.88333389 -322.01099412 351.29094269 -336.859375 337.203125 C-337.62636719 336.47867187 -338.39335937 335.75421875 -339.18359375 335.0078125 C-346.43805572 327.96713625 -352.3880094 320.0157601 -358.078125 311.6875 C-359.89106972 309.15891921 -361.84535352 306.82347336 -363.859375 304.453125 C-373.07147168 293.12618901 -377.98361952 279.80185587 -377.859375 265.203125 C-375.63837183 249.5820694 -367.17440268 237.94626731 -354.88671875 228.35546875 C-325.93733023 207.77338737 -289.46971896 199.82034008 -254.859375 195.203125 C-255.10059082 194.51613525 -255.34180664 193.82914551 -255.59033203 193.12133789 C-261.32586823 176.66883094 -266.33924971 160.28159955 -269.859375 143.203125 C-270.03726563 142.35266602 -270.21515625 141.50220703 -270.3984375 140.62597656 C-275.17771871 116.87181101 -276.88910456 86.85208374 -263.2265625 65.671875 C-255.68934183 55.53211626 -246.02222255 48.81413503 -233.41015625 46.484375 C-192.01449953 41.92007594 -151.42036998 68.58794389 -119.859375 92.203125 C-119.46165894 91.37627197 -119.46165894 91.37627197 -119.0559082 90.53271484 C-101.17224154 53.56119685 -77.98322877 8.99060288 -36.859375 -5.796875 C-23.94889594 -9.44102802 -11.13794384 -6.99925433 0 0 Z " fill="#F1C22E" transform="translate(475.859375,48.796875)"/>
<path d="M0 0 C9.65380968 6.66699564 16.90674509 14.54646846 23.54663086 24.11083984 C26.29635248 28.06816231 29.20561708 31.7214066 32.43359375 35.3046875 C49.95679602 54.79273396 66.140625 87.56834869 66.140625 114.203125 C67.1615625 113.83960938 68.1825 113.47609375 69.234375 113.1015625 C103.60218615 101.11007549 148.57657737 88.718207 183.578125 104.83984375 C195.35757105 111.1066527 204.18676078 121.2268692 211.17578125 132.375 C213.13247276 135.19139096 215.17450816 137.27550595 217.703125 139.578125 C225.81001313 147.32034343 230.24790861 158.1102973 231.140625 169.203125 C231.24503906 170.45416016 231.24503906 170.45416016 231.3515625 171.73046875 C232.78382652 208.36337544 209.38258254 243.67312186 189.140625 272.203125 C189.79434082 272.63020752 190.44805664 273.05729004 191.12158203 273.49731445 C215.22599434 289.28788735 238.79603674 305.66388378 254.984375 330.11328125 C257.19023209 333.27421053 259.59344482 335.93033563 262.265625 338.703125 C267.80780468 344.62872591 271.53120304 350.99259773 275.140625 358.203125 C275.59695313 359.08355469 276.05328125 359.96398437 276.5234375 360.87109375 C280.98543548 370.9339913 281.08019316 384.46024778 277.140625 394.703125 C265.20075358 418.7170237 240.95970435 430.88042831 216.61547852 439.32568359 C195.76729881 446.20637051 173.8838088 450.34100115 152.140625 453.203125 C153.9211593 459.95996011 155.87700248 466.6371124 157.99536133 473.29541016 C168.293446 505.79881692 179.95222443 547.80102622 164.578125 580.5625 C158.61471314 591.5170283 150.887998 599.56423997 139.140625 604.203125 C112.16565923 611.97328048 84.71132826 600.73570638 61.140625 588.203125 C60.41584961 587.82140137 59.69107422 587.43967773 58.94433594 587.04638672 C41.84122799 577.98983433 26.50729082 566.91203393 11.140625 555.203125 C9.10861157 557.79044208 7.48998815 560.29492964 6.08203125 563.265625 C5.51282959 564.44547974 5.51282959 564.44547974 4.93212891 565.64916992 C4.32377197 566.91337769 4.32377197 566.91337769 3.703125 568.203125 C-11.68073932 599.47641323 -34.43394948 638.92546429 -68.984375 651.703125 C-70.59974915 652.2333998 -72.22418986 652.73751296 -73.859375 653.203125 C-74.47554688 653.39261719 -75.09171875 653.58210937 -75.7265625 653.77734375 C-86.34555982 655.89725347 -97.86610362 654.54459053 -107.10058594 648.81176758 C-113.54007557 644.48895045 -119.04368675 639.52394765 -124.484375 634.015625 C-125.73420166 632.75878906 -125.73420166 632.75878906 -127.00927734 631.4765625 C-132.11792695 626.24395079 -136.41367063 621.14953871 -140.18359375 614.875 C-141.99852272 611.9812671 -144.05852187 609.53085365 -146.296875 606.953125 C-161.50559306 588.6347206 -168.27814711 565.27487734 -174.11669922 542.63476562 C-174.82272278 540.32313029 -175.70956291 538.32376609 -176.859375 536.203125 C-177.43042969 536.36393555 -178.00148438 536.52474609 -178.58984375 536.69042969 C-207.71044008 544.80391857 -243.30016059 553.22520495 -272.859375 542.203125 C-274.49326172 541.59597656 -274.49326172 541.59597656 -276.16015625 540.9765625 C-289.97306854 534.66883454 -301.46021215 521.55960455 -309.23046875 508.765625 C-310.81577265 506.27171767 -312.51673972 504.27851693 -314.546875 502.140625 C-323.2760168 492.53458311 -325.37284293 480.027562 -325.171875 467.4921875 C-324.38518011 453.49557425 -320.41511041 439.99394312 -314.859375 427.203125 C-314.41851562 426.1812207 -314.41851562 426.1812207 -313.96875 425.13867188 C-306.90189626 408.98372444 -298.03308243 392.91468347 -287.13671875 379.00390625 C-285.6665226 377.29921255 -285.6665226 377.29921255 -285.859375 375.203125 C-286.70757812 374.74164063 -287.55578125 374.28015625 -288.4296875 373.8046875 C-306.38113668 363.88333389 -322.01099412 351.29094269 -336.859375 337.203125 C-337.62636719 336.47867187 -338.39335937 335.75421875 -339.18359375 335.0078125 C-346.43805572 327.96713625 -352.3880094 320.0157601 -358.078125 311.6875 C-359.89106972 309.15891921 -361.84535352 306.82347336 -363.859375 304.453125 C-373.07147168 293.12618901 -377.98361952 279.80185587 -377.859375 265.203125 C-375.63837183 249.5820694 -367.17440268 237.94626731 -354.88671875 228.35546875 C-325.93733023 207.77338737 -289.46971896 199.82034008 -254.859375 195.203125 C-255.10059082 194.51613525 -255.34180664 193.82914551 -255.59033203 193.12133789 C-261.32586823 176.66883094 -266.33924971 160.28159955 -269.859375 143.203125 C-270.03726563 142.35266602 -270.21515625 141.50220703 -270.3984375 140.62597656 C-275.17771871 116.87181101 -276.88910456 86.85208374 -263.2265625 65.671875 C-255.68934183 55.53211626 -246.02222255 48.81413503 -233.41015625 46.484375 C-192.01449953 41.92007594 -151.42036998 68.58794389 -119.859375 92.203125 C-119.46165894 91.37627197 -119.46165894 91.37627197 -119.0559082 90.53271484 C-101.17224154 53.56119685 -77.98322877 8.99060288 -36.859375 -5.796875 C-23.94889594 -9.44102802 -11.13794384 -6.99925433 0 0 Z M-42.859375 1.203125 C-44.19935547 1.80447266 -44.19935547 1.80447266 -45.56640625 2.41796875 C-52.91985889 6.04735525 -58.60857787 11.09548827 -64.39941406 16.78271484 C-65.76509263 18.11139676 -67.16659351 19.4029783 -68.5703125 20.69140625 C-81.96029321 33.31568425 -91.77176522 48.93546614 -100.60546875 64.94824219 C-101.82130678 67.13466743 -103.06790726 69.29984525 -104.328125 71.4609375 C-112.79571455 84.65444994 -112.79571455 84.65444994 -116.859375 99.203125 C-121.78546131 96.50535727 -126.21393373 93.54334909 -130.671875 90.140625 C-160.8228134 67.68980727 -196.36692766 48.48041237 -234.859375 51.203125 C-244.08064655 52.83714265 -251.75903873 58.22981391 -257.67578125 65.40625 C-272.10448093 86.09100243 -270.70646699 113.16900967 -266.62524414 136.95092773 C-262.72663672 158.38581265 -256.61588725 178.84830249 -248.859375 199.203125 C-249.91898438 199.24179687 -249.91898438 199.24179687 -251 199.28125 C-261.51620938 199.86254801 -271.59326654 201.94555779 -281.859375 204.203125 C-282.73754883 204.39422852 -283.61572266 204.58533203 -284.52050781 204.78222656 C-302.47688106 208.73223302 -319.42073621 213.90822566 -335.859375 222.203125 C-337.35597656 222.94369141 -337.35597656 222.94369141 -338.8828125 223.69921875 C-345.53562901 227.13743905 -351.238927 231.2647702 -356.859375 236.203125 C-357.65601563 236.89277344 -358.45265625 237.58242188 -359.2734375 238.29296875 C-367.072955 245.50556603 -372.80162351 254.95006265 -373.25439453 265.7487793 C-373.61024885 284.21434616 -364.59685768 298.26714991 -352.18041992 311.29711914 C-345.59971551 317.96830701 -338.49908812 323.79332235 -330.859375 329.203125 C-330.30088867 329.60063965 -329.74240234 329.9981543 -329.16699219 330.40771484 C-301.19814461 351.40654299 -301.19814461 351.40654299 -269.859375 362.203125 C-270.37153564 362.90320679 -270.37153564 362.90320679 -270.89404297 363.61743164 C-296.0861021 398.11409552 -323.55862477 436.44539174 -319.859375 481.203125 C-318.04274014 491.27921492 -312.39372463 499.74980458 -304.359375 505.890625 C-292.04515614 514.04413052 -278.89781211 515.46322502 -264.546875 515.515625 C-263.52084671 515.51955261 -263.52084671 515.51955261 -262.47409058 515.52355957 C-248.98919096 515.52905344 -236.06709776 513.98369821 -222.859375 511.203125 C-221.77076172 510.97882813 -221.77076172 510.97882813 -220.66015625 510.75 C-206.17269585 507.67603984 -191.89641176 502.88213725 -177.859375 498.203125 C-177.77300781 499.09128906 -177.68664062 499.97945312 -177.59765625 500.89453125 C-176.34307135 512.30089491 -174.05519721 523.37209459 -171.47216797 534.546875 C-170.94406901 536.83600515 -170.43261134 539.1279788 -169.92578125 541.421875 C-163.78582611 567.83732647 -153.04330722 601.36236289 -129.359375 617.140625 C-118.62582443 623.41790147 -107.5498425 625.29814841 -95.359375 622.359375 C-53.69104776 607.53506627 -31.78542885 558.83724177 -13.859375 522.203125 C-11.21173051 523.45606033 -8.9122597 524.80466299 -6.6015625 526.6015625 C-5.98579346 527.07464844 -5.37002441 527.54773438 -4.7355957 528.03515625 C-3.74499146 528.79892578 -3.74499146 528.79892578 -2.734375 529.578125 C21.80138176 548.17767538 48.41576045 564.50402365 78.140625 573.203125 C78.96046875 573.44933594 79.7803125 573.69554687 80.625 573.94921875 C94.25307766 577.35623816 111.45639698 576.79073639 123.75390625 569.6953125 C135.48601194 561.21664788 141.10478539 549.06910792 143.74584961 535.10620117 C149.0068653 496.41805177 136.14968513 458.04617441 123.140625 422.203125 C124.06359375 422.17734375 124.9865625 422.1515625 125.9375 422.125 C136.33972297 421.67272944 146.1841537 420.02174715 156.34326172 417.79150391 C158.41749835 417.35522268 160.4985254 416.95096276 162.58251953 416.56396484 C171.61665474 414.86984436 180.17783894 412.5310703 188.890625 409.578125 C189.53749268 409.36003174 190.18436035 409.14193848 190.85083008 408.91723633 C212.78930691 401.48580979 237.77816979 391.7692235 249.078125 369.953125 C249.78596932 368.37878161 250.47652226 366.7964135 251.140625 365.203125 C251.7903125 363.7490625 251.7903125 363.7490625 252.453125 362.265625 C255.51609806 348.62147229 251.23819993 335.80661526 244.140625 324.203125 C224.56734723 296.19308957 193.07081309 278.77815444 163.03515625 264.13818359 C161.67240837 263.46559024 160.31636831 262.77934312 158.96484375 262.08447266 C158.24941406 261.71757324 157.53398438 261.35067383 156.796875 260.97265625 C156.14525391 260.63468018 155.49363281 260.2967041 154.82226562 259.94848633 C153.14245505 259.06805345 153.14245505 259.06805345 151.140625 259.203125 C151.97980469 258.14351563 151.97980469 258.14351563 152.8359375 257.0625 C174.11870319 229.82603458 192.82907834 200.766182 202.140625 167.203125 C202.33422607 166.55931885 202.52782715 165.9155127 202.72729492 165.25219727 C206.09288071 153.34702055 206.06749633 138.25718137 200.8125 126.96484375 C193.09228857 114.21206459 182.2031995 108.08177002 168.140625 104.203125 C164.13143783 103.2426315 160.36928473 103.06074358 156.25 103.03515625 C155.59328308 103.0307402 154.93656616 103.02632416 154.25994873 103.02177429 C120.79109446 102.85922989 90.42599911 109.35122996 59.140625 121.203125 C58.40650391 121.47850098 57.67238281 121.75387695 56.91601562 122.03759766 C53.31064144 123.39258631 49.71767916 124.77504964 46.140625 126.203125 C46.09164063 125.39230469 46.04265625 124.58148438 45.9921875 123.74609375 C45.88003906 122.08513672 45.88003906 122.08513672 45.765625 120.390625 C45.69601562 119.31167969 45.62640625 118.23273438 45.5546875 117.12109375 C45.02281768 112.08840099 44.08471597 107.1723099 43.140625 102.203125 C42.80447531 100.32686092 42.4685393 98.45055854 42.1328125 96.57421875 C36.4569231 65.93471237 27.11106349 26.14365905 1.078125 5.765625 C-12.57342053 -3.61474391 -27.5804184 -5.91218472 -42.859375 1.203125 Z " fill="#B31B55" transform="translate(475.859375,48.796875)"/>
</svg>
