<svg width="204" height="203" viewBox="0 0 204 203" fill="none" xmlns="http://www.w3.org/2000/svg">
<path d="M50.9998 53.9998L69 72L71.8284 69.1716L53.8282 51.1714L71.9996 33L69.1712 30.1716L50.9998 48.343L32.8284 30.1716L30 33L48.1714 51.1714L30.1712 69.1716L32.9996 72L50.9998 53.9998Z" fill="black"/>
<path d="M153 155.657L171 173.657L173.828 170.828L155.828 152.828L174 134.657L171.171 131.828L153 150L134.828 131.828L132 134.657L150.171 152.828L132.171 170.828L135 173.657L153 155.657Z" fill="black"/>
<path d="M50.9998 53.9998L69 72L71.8284 69.1716L53.8282 51.1714L71.9996 33L69.1712 30.1716L50.9998 48.343L32.8284 30.1716L30 33L48.1714 51.1714L30.1712 69.1716L32.9996 72L50.9998 53.9998Z" fill="black"/>
<path d="M54.0856 152.914L72.0858 134.914L69.2573 132.086L51.2571 150.086L33.0857 131.914L30.2573 134.743L48.4287 152.914L30.2573 171.086L33.0858 173.914L51.2571 155.743L69.2573 173.743L72.0858 170.914L54.0856 152.914Z" fill="black"/>
<path d="M104.828 102L122.828 84L120 81.1716L102 99.1718L83.8284 81.0004L81 83.8288L99.1714 102L81 120.172L83.8284 123L102 104.829L120 122.829L122.828 120L104.828 102Z" fill="black"/>
<path d="M104.828 0.000185879L99.1714 0.000186126L81 18.1716L83.8284 21L102 2.82862L120 20.8288L122.828 18.0004L104.828 0.000185879Z" fill="black"/>
<path d="M104.828 203L122.828 185L120 182.172L102 200.172L83.8284 182L81 184.829L99.1714 203L104.828 203Z" fill="black"/>
<path d="M2.82842 102L20.8286 84L18.0002 81.1716L-1.03408e-06 99.1718L-7.86813e-07 104.829L18.0002 122.829L20.8286 120L2.82842 102Z" fill="black"/>
<path d="M2.82842 203L20.8286 185L18.0002 182.172L-1.23635e-07 200.172L0 203L2.82842 203Z" fill="black"/>
<path d="M2.82842 0.000182982L-9.10456e-07 -3.8147e-06L-7.86813e-07 2.82861L18.0002 20.8288L20.8286 18.0004L2.82842 0.000182982Z" fill="black"/>
<path d="M155.742 50.9142L173.742 32.914L170.914 30.0856L152.914 48.0858L134.742 29.9144L131.914 32.7428L150.085 50.9142L131.914 69.0856L134.742 71.914L152.914 53.7426L170.914 71.7428L173.742 68.9144L155.742 50.9142Z" fill="black"/>
<path d="M204 104.828V99.1714L185.828 81L183 83.8284L201.171 102L183.171 120L186 122.828L204 104.828Z" fill="black"/>
<path d="M204 203V200.171L185.828 182L183 184.828L201.171 203H204Z" fill="black"/>
<path d="M204 2.82824V-0.000183105H201.172L183.171 18L186 20.8284L204 2.82824Z" fill="black"/>
</svg>
