<svg width="102" height="124" viewBox="0 0 102 124" fill="none" xmlns="http://www.w3.org/2000/svg">
<path d="M55.1794 102.45L57.9205 94.1317L66.2386 96.8728C74.0115 99.4344 82.3818 95.2134 84.9434 87.4405C87.5049 79.6676 83.2839 71.2972 75.5111 68.7357L67.193 65.9945L69.9342 57.6765C72.4957 49.9036 68.2747 41.5332 60.5019 38.9717C52.729 36.4102 44.3586 40.6311 41.7971 48.404L39.0559 56.7221L30.7203 53.9751C22.9474 51.4136 14.577 55.6345 12.0155 63.4074C9.45394 71.1803 13.6749 79.5507 21.4478 82.1122L29.7834 84.8592L27.0364 93.1948C24.4749 100.968 28.6959 109.338 36.4688 111.9C44.2474 114.444 52.6178 110.223 55.1794 102.45Z" fill="#A26FE3"/>
<path d="M80.9382 65.923L72.4281 63.8537L74.4973 55.3436C76.431 47.3913 71.5562 39.384 63.6038 37.4504C55.6514 35.5167 47.6442 40.3915 45.7105 48.3439L43.6412 56.854L35.1311 54.7847C27.1788 52.851 19.1715 57.7259 17.2379 65.6783C15.3042 73.6306 20.1791 81.6379 28.1314 83.5715L36.6415 85.6408L34.5679 94.1689C32.6342 102.121 37.509 110.129 45.4614 112.062C53.4138 113.996 61.421 109.121 63.3547 101.169L65.4283 92.6405L73.9564 94.7142C81.9088 96.6479 89.916 91.773 91.8497 83.8207C93.7654 75.8639 88.8905 67.8567 80.9382 65.923Z" fill="#F2C32E"/>
</svg>
